<svg width="32" height="32" viewBox="0 0 32 32" fill="none" xmlns="http://www.w3.org/2000/svg">
<path d="M12.5315 16.3444L18.6947 21.1583C18.7108 21.171 18.7302 21.1789 18.7506 21.181C18.7709 21.1832 18.7915 21.1796 18.8099 21.1706C18.8284 21.1616 18.8439 21.1476 18.8547 21.1302C18.8655 21.1128 18.8712 21.0927 18.8711 21.0722V20.0153C18.8711 19.9483 18.8396 19.8841 18.7877 19.8431L13.8658 15.9999L18.7877 12.1567C18.841 12.1157 18.8711 12.0515 18.8711 11.9845V10.9276C18.8711 10.836 18.7658 10.7854 18.6947 10.8415L12.5315 15.6554C12.4791 15.6962 12.4367 15.7485 12.4076 15.8082C12.3784 15.8679 12.3633 15.9335 12.3633 15.9999C12.3633 16.0663 12.3784 16.1319 12.4076 16.1916C12.4367 16.2513 12.4791 16.3036 12.5315 16.3444Z" fill="#242D35"/>
</svg>
