<svg width="32" height="32" viewBox="0 0 32 32" fill="none" xmlns="http://www.w3.org/2000/svg">
<path d="M13.1015 20.0157V21.0725C13.1015 21.1641 13.2068 21.2147 13.2779 21.1587L19.4412 16.3448C19.4936 16.3041 19.5359 16.2519 19.5651 16.1923C19.5942 16.1327 19.6094 16.0673 19.6094 16.001C19.6094 15.9346 19.5942 15.8692 19.5651 15.8096C19.5359 15.75 19.4936 15.6978 19.4412 15.6571L13.2779 10.8432C13.2054 10.7872 13.1015 10.8378 13.1015 10.9294V11.9862C13.1015 12.0532 13.133 12.1175 13.1849 12.1585L18.1068 16.0003L13.1849 19.8434C13.133 19.8844 13.1015 19.9487 13.1015 20.0157Z" fill="#242D35"/>
</svg>
